<svg xmlns="http://www.w3.org/2000/svg" viewBox="0 0 512 512" role="img" aria-label="tż">
  <rect width="512" height="512" rx="112" fill="#03c75a"/>
  <path fill="#ffffff" d="M128 300c0-66 54-120 120-120h16c66 0 120 54 120 120v24H128v-24zm40 0c0-44 36-80 80-80h16c44 0 80 36 80 80v8H168v-8zm88-112a24 24 0 1 1 0 48 24 24 0 0 1 0-48zm-72 0a24 24 0 1 1 0 48 24 24 0 0 1 0-48zm144 0a24 24 0 1 1 0 48 24 24 0 0 1 0-48z"/>
  <path fill="#d1fae5" d="M152 356h208l16 36c6 14-4 28-19 28H155c-15 0-25-14-19-28l16-36z"/>
  <circle cx="176" cy="392" r="28" fill="#ffffff"/>
  <circle cx="336" cy="392" r="28" fill="#ffffff"/>
  <circle cx="176" cy="392" r="12" fill="#047857"/>
  <circle cx="336" cy="392" r="12" fill="#047857"/>
</svg>
